# AST/ASF file generated using VICON BodyLanguage
# -----------------------------------------------
:version 1.10
:name VICON
:units
  mass 1.0
  length 0.45
  angle deg
:documentation
   .ast/.asf automatically generated from VICON data using
   VICON BodyBuilder and BodyLanguage model FoxedUp or BRILLIANT.MOD
:root
   order TX TY TZ RX RY RZ
   axis XYZ
   position 0 0 0  
   orientation 0 0 0 
:bonedata
  begin
     id 1 
     name lhipjoint
     direction 0.645897 -0.709066 0.282916 
     length 2.50918 
     axis 0 0 0  XYZ
  end
  begin
     id 2 
     name lfemur
     direction 0.34202 -0.939693 0  
     length 6.85725  
     axis 0 0 20  XYZ
    dof rx ry rz
    limits (-160.0 20.0)
           (-70.0 70.0)
           (-60.0 70.0)
  end
  begin
     id 3 
     name ltibia
     direction 0.34202 -0.939693 0   
     length 8.01778   
     axis 0 0 20   XYZ
    dof rx
    limits (-10.0 170.0)
  end
  begin
     id 4 
     name lfoot
     direction 0.0796011 -0.218702 0.972539   
     length 2.13962   
     axis -90 7.62852e-016 20   XYZ
    dof rx rz
    limits (-45.0 90.0)
           (-70.0 20.0)
  end
  begin
     id 5 
     name ltoes
     direction 1.53548e-011 -4.21881e-011 1   
     length 1.07476   
     axis -90 7.62852e-016 20   XYZ
    dof rx
    limits (-90.0 20.0)
  end
  begin
     id 6 
     name rhipjoint
     direction -0.63101 -0.720537 0.287493   
     length 2.46923  
     axis 0 0 0  XYZ 
  end
  begin
     id 7 
     name rfemur
     direction -0.34202 -0.939693 0   
     length 6.81957   
     axis 0 0 -20   XYZ
    dof rx ry rz
    limits (-160.0 20.0)
           (-70.0 70.0)
           (-70.0 60.0)
  end
  begin
     id 8 
     name rtibia
     direction -0.34202 -0.939693 0   
     length 8.15152   
     axis 0 0 -20   XYZ
    dof rx
    limits (-10.0 170.0)
 end
 begin
     id 9 
     name rfoot
     direction -0.105819 -0.290734 0.950934   
     length 2.14588  
     axis -90 -7.62852e-016 -20   XYZ
    dof rx rz
    limits (-45.0 90.0)
           (-20.0 70.0)
  end
  begin
     id 10 
     name rtoes
     direction -1.53512e-011 -4.22005e-011 1   
     length 1.0703   
     axis -90 -7.62852e-016 -20   XYZ
    dof rx
    limits (-90.0 20.0)
  end
  begin
     id 11 
     name lowerback
     direction 0.0114933 0.999236 0.0373542   
     length 1.91711   
     axis 0 0 0   XYZ
    dof rx ry rz
    limits (-20.0 45.0)
           (-30.0 30.0)
           (-30.0 30.0)
  end
  begin
     id 12 
     name upperback
     direction 0.00911529 0.998099 0.0609554   
     length 1.90888   
     axis 0 0 0   XYZ
    dof rx ry rz
    limits (-20.0 45.0)
           (-30.0 30.0)
           (-30.0 30.0)
  end
  begin
     id 13 
     name thorax
     direction 0.00357322 0.99911 0.0420379   
     length 1.90942   
     axis 0 0 0   XYZ
    dof rx ry rz
    limits (-20.0 45.0)
           (-30.0 30.0)
           (-30.0 30.0)
  end
  begin
     id 14 
     name lowerneck
     direction -0.0589311 0.997882 0.0275448   
     length 1.83956   
     axis 0 0 0   XYZ
    dof rx ry rz
    limits (-20.0 45.0)
           (-30.0 30.0)
           (-30.0 30.0)
  end
  begin
     id 15 
     name upperneck
     direction 0.0362633 0.960055 -0.277453   
     length 1.82031   
     axis 0 0 0   XYZ
    dof rx ry rz
    limits (-20.0 45.0)
           (-30.0 30.0)
           (-30.0 30.0)
  end
  begin
     id 16
     name head
     direction 0.0166719 0.995328 -0.0951042  
     length 1.86084  
     axis 0 0 0   XYZ
    dof rx ry rz
    limits (-20.0 45.0)
           (-30.0 30.0)
           (-30.0 30.0)
  end
  begin
     id 17 
     name lclavicle
     direction 0.90319 0.426238 0.0506919  
     length 3.17828  
     axis 0 0 0   XYZ
    dof ry rz
    limits (-20.0 10.0)
           (0.0 20.0)
  end
  begin
     id 18 
     name lhumerus
     direction 1 -4.48953e-011 6.78797e-028   
     length 5.43592   
     axis 180 -30 -90   XYZ
    dof rx ry rz
    limits (-60.0 90.0)
           (-90.0 90.0)
           (-90.0 90.0)
  end
  begin
     id 19
     name lradius
     direction 1 -4.48969e-011 7.02702e-027   
     length 3.2546   
     axis 180 -30 -90   XYZ
    dof rx
    limits (-10.0 170.0)
  end
  begin
     id 20
     name lwrist
     direction 1 -4.48975e-011 1.29807e-026   
     length 1.6273   
     axis -8.50346e-015 90 90   XYZ
    dof ry
    limits (-180.0 0.0)
 end
  begin
     id 21 
     name lhand
     direction 1 -4.48917e-011 2.59615e-026   
     length 0.498244   
     axis -1.65656e-014 90 90   XYZ
    dof rx rz
    limits (-90.0 90.0)
           (-45.0 45.0)
  end
  begin
     id 22 
     name lfingers
     direction 1 -4.48885e-011 5.1923e-026   
     length 0.401697   
     axis -3.31313e-014 90 90   XYZ
    dof rx
    limits (0.0 90.0)
  end
  begin
     id 23
     name lthumb
     direction 0.707107 -6.34946e-011 0.707107   
     length 0.576759   
     axis -90 45 2.85299e-015   XYZ
    dof rx rz
    limits (-45.0 45.0)
           (-45.0 45.0)
  end
  begin
     id 24 
     name rclavicle
     direction -0.908603 0.391432 0.145676   
     length 3.15477  
     axis 0 0 0   XYZ 
    dof ry rz
    limits (-10.0 20.0)
           (-20.0 0.0)
  end
  begin
     id 25 
     name rhumerus
     direction -1 -4.4898e-011 1.02852e-027  
     length 5.3383   
     axis 180 30 90   XYZ
    dof rx ry rz
    limits (-90.0 60.0)
           (-90.0 90.0)
           (-90.0 90.0)
  end
  begin
     id 26 
     name rradius
     direction -1 -4.48968e-011 7.05567e-027   
     length 3.23148   
     axis 180 30 90   XYZ
    dof rx
    limits (-10.0 170.0)
  end
  begin
     id 27 
     name rwrist
     direction -1 -4.48927e-011 1.29807e-026   
     length 1.61574   
     axis -8.50346e-015 -90 -90   XYZ
    dof ry
    limits (-180.0 0.0)
  end
  begin
     id 28
     name rhand
     direction -1 -4.48905e-011 2.59615e-026   
     length 0.463641   
     axis -1.65656e-014 -90 -90   XYZ
    dof rx rz
    limits (-90.0 90.0)
           (-45.0 45.0)
  end
  begin
     id 29
     name rfingers
     direction -1 -4.49167e-011 5.1923e-026   
     length 0.373799   
     axis -3.31313e-014 -90 -90   XYZ
    dof rx
    limits (0.0 90.0)
  end
  begin
     id 30
     name rthumb
     direction -0.707107 -6.34954e-011 0.707107   
     length 0.536703   
     axis -90 -45 -2.85299e-015   XYZ
    dof rx rz
    limits (-45.0 45.0)
           (-45.0 45.0)
  end
:hierarchy
  begin
    root lhipjoint rhipjoint lowerback
    lhipjoint lfemur
    lfemur ltibia
    ltibia lfoot
    lfoot ltoes
    rhipjoint rfemur
    rfemur rtibia
    rtibia rfoot
    rfoot rtoes
    lowerback upperback
    upperback thorax
    thorax lowerneck lclavicle rclavicle
    lowerneck upperneck
    upperneck head
    lclavicle lhumerus
    lhumerus lradius
    lradius lwrist
    lwrist lhand lthumb
    lhand lfingers
    rclavicle rhumerus
    rhumerus rradius
    rradius rwrist
    rwrist rhand rthumb
    rhand rfingers
  end

#!OML:ASF F:\VICON\USERDATA\INSTALL\rory3\rory3.ASF
:FULLY-SPECIFIED
:DEGREES
85
root 3.90226 17.6334 3.94997 21.0254 -6.73255 -4.52957
lowerback -8.09089 -1.49051 5.23026
upperback -12.7641 -1.92878 4.34474
thorax -9.09823 -1.23209 1.73637
lowerneck -6.55468 15.284 12.833
upperneck 21.3987 18.7935 2.64781
head 8.77798 10.136 0.851434
rclavicle 1.32192e-014 -4.77083e-015
rhumerus -7.4063 -24.1997 22.1184
rradius 119.014
rwrist -58.7387
rhand -3.49128 -45.3872
rfingers 7.12502
rthumb 22.2424 -74.1273
lclavicle 1.32192e-014 -4.77083e-015
lhumerus 25.5013 29.666 -17.7851
lradius 28.7399
lwrist 35.2474
lhand -22.6016 -15.6374
lfingers 7.12502
lthumb 3.8278 14.308
rfemur -6.7031 9.18066 -0.446819
rtibia 10.5144
rfoot 22.4931 -7.83941
rtoes -36.5288
lfemur -24.3224 -5.80796 -20.5048
ltibia 20.8421
lfoot -14.7387 10.7722
ltoes 8.40088
86
root 3.90515 17.6334 3.94419 20.9119 -6.60188 -4.73735
lowerback -7.97012 -1.46127 5.48162
upperback -12.6257 -1.89153 4.32943
thorax -9.02217 -1.23396 1.57846
lowerneck -7.15583 15.0195 12.8348
upperneck 22.1152 18.328 2.69354
head 9.10759 9.92736 0.896203
rclavicle -2.52457e-014 1.59028e-015
rhumerus -7.2674 -24.2609 21.8213
rradius 118.838
rwrist -58.3305
rhand -3.15938 -45.3385
rfingers 7.12502
rthumb 22.561 -74.0403
lclavicle -2.52457e-014 1.59028e-015
lhumerus 25.3321 29.1708 -18.2264
lradius 28.9608
lwrist 36.2427
lhand -22.8723 -15.4137
lfingers 7.12502
lthumb 3.56645 14.5362
rfemur -6.53232 9.13807 -0.143063
rtibia 10.5043
rfoot 22.5603 -7.80921
rtoes -36.5509
lfemur -24.262 -5.70213 -20.2921
ltibia 20.9467
lfoot -14.8161 10.5743
ltoes 8.51282
87
root 3.90634 17.6342 3.9382 20.8331 -6.51813 -4.88
lowerback -7.90045 -1.42794 5.63494
upperback -12.489 -1.85071 4.3211
thorax -8.91305 -1.22434 1.47994
lowerneck -7.40488 14.7079 13.0321
upperneck 22.4823 17.9254 2.26168
head 9.32413 9.71457 0.723738
rclavicle -6.95746e-015 2.06736e-014
rhumerus -7.10552 -24.3737 21.5833
rradius 118.727
rwrist -57.9527
rhand -3.3827 -45.0216
rfingers 7.12502
rthumb 22.3466 -73.7492
lclavicle -6.95746e-015 2.06736e-014
lhumerus 25.2882 29.0328 -18.3855
lradius 29.1401
lwrist 37.0273
lhand -22.9688 -15.4433
lfingers 7.12502
lthumb 3.4732 14.5081
rfemur -6.38617 9.12704 0.0614892
rtibia 10.4262
rfoot 22.6216 -7.85825
rtoes -36.6356
lfemur -24.2799 -5.65157 -20.1328
ltibia 21.0795
lfoot -14.8768 10.478
ltoes 8.66988
88
root 3.90782 17.638 3.92819 20.8298 -6.55401 -4.98466
lowerback -7.93355 -1.41829 5.71565
upperback -12.3917 -1.84561 4.36341
thorax -8.78548 -1.22415 1.47383
lowerneck -7.28836 14.5405 12.9905
upperneck 22.5386 17.7987 1.91099
head 9.34468 9.62067 0.592294
rclavicle -9.74045e-015 4.37326e-014
rhumerus -6.75747 -24.4571 21.2703
rradius 118.689
rwrist -57.9454
rhand -4.05497 -45.1633
rfingers 7.12502
rthumb 21.7012 -73.9669
lclavicle -9.74045e-015 4.37326e-014
lhumerus 25.5887 29.5688 -17.8735
lradius 28.9907
lwrist 36.3232
lhand -22.4335 -15.9205
lfingers 7.12502
lthumb 3.9902 14.0219
rfemur -6.47221 9.15821 0.156965
rtibia 10.4699
rfoot 22.724 -7.91927
rtoes -36.6398
lfemur -24.3651 -5.56318 -20.037
ltibia 21.1668
lfoot -14.9179 10.4762
ltoes 8.59685
89
root 3.91126 17.6414 3.91503 20.8395 -6.59602 -5.02732
lowerback -8.01519 -1.41375 5.7498
upperback -12.2539 -1.85474 4.3777
thorax -8.58255 -1.22714 1.45904
lowerneck -7.59493 14.4818 12.6151
upperneck 22.8049 17.7046 2.04539
head 9.43504 9.56165 0.704953
rclavicle -8.94531e-015 -2.46493e-014
rhumerus -6.42419 -24.5974 20.9364
rradius 118.601
rwrist -58.0053
rhand -4.30703 -45.4061
rfingers 7.12502
rthumb 21.4591 -74.2375
lclavicle -8.94531e-015 -2.46493e-014
lhumerus 26.2411 30.6649 -16.9027
lradius 28.6086
lwrist 34.7054
lhand -21.698 -16.3034
lfingers 7.12502
lthumb 4.70038 13.6245
rfemur -6.71509 9.14655 0.170974
rtibia 10.7568
rfoot 22.6519 -7.91938
rtoes -36.6867
lfemur -24.4399 -5.56261 -19.9921
ltibia 21.1803
lfoot -14.9178 10.5046
ltoes 8.88769
90
root 3.91338 17.6405 3.89802 20.7949 -6.70334 -4.83806
lowerback -7.92576 -1.4124 5.47232
upperback -12.1594 -1.84594 4.34151
thorax -8.51145 -1.19874 1.57089
lowerneck -8.12076 14.3516 12.1651
upperneck 23.2456 17.4834 2.2375
head 9.60812 9.44305 0.855231
rclavicle -2.09718e-014 9.54166e-015
rhumerus -6.15888 -24.7172 20.7189
rradius 118.485
rwrist -57.9802
rhand -3.68092 -45.0333
rfingers 7.12502
rthumb 22.0603 -73.795
lclavicle -2.09718e-014 9.54166e-015
lhumerus 26.7262 31.3621 -16.2148
lradius 28.326
lwrist 33.4849
lhand -21.5011 -16.2342
lfingers 7.12502
lthumb 4.89049 13.6894
rfemur -6.94841 9.14711 -0.0817081
rtibia 11.067
rfoot 22.5931 -7.94494
rtoes -36.8848
lfemur -24.4872 -5.64514 -20.1904
ltibia 21.1985
lfoot -14.862 10.5797
ltoes 9.25618
91
root 3.91339 17.638 3.87675 20.6843 -6.83077 -4.7178
lowerback -7.63155 -1.39196 5.2066
upperback -12.1093 -1.7914 4.32697
thorax -8.60859 -1.14922 1.71015
lowerneck -8.27247 14.1171 11.8058
upperneck 23.5328 17.2157 2.17878
head 9.69163 9.28711 0.868923
rclavicle 5.26779e-015 1.66979e-014
rhumerus -5.95949 -24.7305 20.5658
rradius 118.442
rwrist -58.0094
rhand -3.29115 -44.6608
rfingers 7.12502
rthumb 22.4345 -73.3778
lclavicle 5.26779e-015 1.66979e-014
lhumerus 26.9094 31.4099 -15.9782
lradius 28.2602
lwrist 33.1813
lhand -21.6005 -16.2616
lfingers 7.12502
lthumb 4.79457 13.6641
rfemur -7.08826 9.23186 -0.242167
rtibia 11.2899
rfoot 22.6187 -8.03399
rtoes -37.0696
lfemur -24.4913 -5.65651 -20.323
ltibia 21.2611
lfoot -14.8784 10.6276
ltoes 9.43509
92
root 3.9156 17.6359 3.8622 20.5928 -6.79882 -4.89148
lowerback -7.40367 -1.3163 5.34234
upperback -12.0096 -1.67805 4.3158
thorax -8.63163 -1.10304 1.62626
lowerneck -8.60444 13.9106 11.5329
upperneck 23.9885 16.9265 2.22107
head 9.86895 9.13677 0.92572
rclavicle 8.64713e-015 1.27222e-014
rhumerus -6.0627 -24.7761 20.6081
rradius 118.579
rwrist -58.3219
rhand -3.29331 -44.8058
rfingers 7.12502
rthumb 22.4324 -73.5231
lclavicle 8.64713e-015 1.27222e-014
lhumerus 27.1096 31.3583 -15.8371
lradius 28.3419
lwrist 33.5898
lhand -20.8229 -16.3785
lfingers 7.12502
lthumb 5.54534 13.5289
rfemur -7.16121 9.27075 -0.0257864
rtibia 11.5461
rfoot 22.5393 -8.04622
rtoes -37.0036
lfemur -24.4447 -5.48535 -20.1742
ltibia 21.3155
lfoot -14.9301 10.5197
ltoes 9.24135
